<svg xmlns="http://www.w3.org/2000/svg" viewBox="0 0 108 43" xmlns:xlink="http://www.w3.org/1999/xlink">
    <title>
        Teslar Logo
    </title>
    <defs>
        <path id="a" d="M86.642 33H0V.768h86.642z"/>
        <path id="c" d="M75.018 39.398V.348H.103v39.05h74.915z"/>
    </defs>
    <g fill="none" fill-rule="evenodd">
        <g transform="translate(0 9.654)">
            <mask id="b" fill="#fff">
                <use xlink:href="#a"/>
            </mask>
            <path fill="#221F20" d="M65.096 25.648l7.234-1.186 6.21-10.46 1.77 9.672 6.332-.818L80.472.768m-22.13 4.414l-5.8.712-4.58 21.59L62.01 25.91l1.615-5.57-8.792 1.39M1.075 12.026L0 17.256l6.513-.91L3.043 33l5.804-.713 3.527-16.595 5.47-.672 1.487-5.18m4.43 12.86l5-.67 1.078-5.052-4.96.612.696-3.438 7.693-.898 1.125-5.217-13.51 1.66-4.63 21.763 14.004-1.684 1.09-5.168-8.164.965" mask="url(#b)"/>
        </g>
        <g transform="translate(32 -.346)">
            <mask id="d" fill="#fff">
                <use xlink:href="#c"/>
            </mask>
            <path fill="#221F20" d="M68.306 10.022l-3.302.376.002-.01-5.796.71-4.57 21.73 5.75-.678 1.12-5.08 2.515-12.003 2.223-.304c1.29-.147 3.273-.078 2.87 2.087-.328 1.77-2.095 2.372-3.415 2.522l-1.47.202v.014l-.774.11 1.32 4.55 2.05 7.042 6.183-.765-2.906-7.508c2.397-1.043 4.596-3.34 4.875-6.558.43-4.95-3.508-6.78-6.68-6.44M13.938 27.43s-3.557-2.712-4.064-3.1c-.508-.387-1.92-1.427-.78-2.69 1.57-1.735 3.998 1.76 3.998 1.76l3.772-3.59s-1.89-2.466-4.28-2.95c-2.7-.548-6.94.235-8.98 4.127-2.07 3.95.13 6.06 1.373 7.12.733.627 1.666 1.28 3.22 2.374 1.837 1.3 1.867 3.736-.316 4.386-2.18.65-3.12-1.95-3.12-1.95L.108 35.54S.76 38.532 4.89 39.3c2.597.486 7.72-.788 9.88-5.25 2.16-4.46-.83-6.62-.83-6.62" mask="url(#d)"/>
            <path fill="#EE402F" d="M39.303 6.813c2.885 7.587-6.208 24.607-6.208 24.607s8.015-13.063 10.3-18.367c2.198-5.098 1.11-9.5-1.658-11.416-4.297-2.974-10.362.053-10.603.56.823-.244 5.75-1.75 8.17 4.616" mask="url(#d)"/>
            <path fill="#EE402F" d="M29.047 12.472c2.236 2.435 6.5.935 7.773-3.744-1.453 2.05-4.424 1.75-5.764.804-1.618-1.14-2.066-3.478-1.63-5.43-1.618 1.57-2.598 5.954-.38 8.37" mask="url(#d)"/>
        </g>
    </g>
</svg>
